<svg width="118" height="40" viewBox="0 0 118 40" fill="none" xmlns="http://www.w3.org/2000/svg">
<g clip-path="url(#clip0_26_1701)">
<rect width="118" height="40" rx="4" fill="#CCC2DC"/>
<path d="M40.252 25L43.948 14.976H45.551L49.226 25H47.518L45.145 18.147L44.753 16.922H44.711L44.326 18.147L41.939 25H40.252ZM41.918 22.627L42.366 21.283H46.965L47.434 22.627H41.918ZM50.5336 25V14.822H52.1086V25H50.5336ZM56.7589 25.224C56.1149 25.224 55.6039 25.0397 55.2259 24.671C54.8479 24.3023 54.6589 23.775 54.6589 23.089V15.746H56.2269V22.872C56.2269 23.208 56.2993 23.46 56.4439 23.628C56.5886 23.796 56.8079 23.8823 57.1019 23.887C57.1953 23.887 57.2933 23.8753 57.3959 23.852C57.5033 23.8287 57.6269 23.789 57.7669 23.733C57.9116 23.677 57.9839 23.649 57.9839 23.649L58.1519 24.902C58.1519 24.902 58.0703 24.9347 57.9069 25C57.7483 25.07 57.5756 25.1237 57.3889 25.161C57.2023 25.203 56.9923 25.224 56.7589 25.224ZM53.4689 19.008V17.692H58.0119V19.008H53.4689ZM62.7837 25.231C62.1863 25.231 61.6567 25.1423 61.1947 24.965C60.7373 24.783 60.3547 24.5287 60.0467 24.202C59.7433 23.8707 59.517 23.523 59.3677 23.159C59.223 22.7903 59.1507 22.606 59.1507 22.606L60.5577 21.997C60.5577 21.997 60.616 22.1393 60.7327 22.424C60.8493 22.704 61.0033 22.9513 61.1947 23.166C61.3907 23.3807 61.6263 23.544 61.9017 23.656C62.177 23.768 62.492 23.824 62.8467 23.824C63.3927 23.824 63.8267 23.6887 64.1487 23.418C64.4707 23.1473 64.6317 22.7927 64.6317 22.354V22.298C64.6317 21.878 64.4823 21.535 64.1837 21.269C63.885 20.9983 63.283 20.7043 62.3777 20.387C61.323 20.023 60.5857 19.6147 60.1657 19.162C59.7503 18.7047 59.5427 18.1447 59.5427 17.482V17.447C59.5427 16.663 59.8367 16.0167 60.4247 15.508C61.0173 14.9993 61.785 14.745 62.7277 14.745C63.2363 14.745 63.689 14.815 64.0857 14.955C64.4823 15.095 64.823 15.3027 65.1077 15.578C65.3923 15.8487 65.6047 16.1287 65.7447 16.418C65.8847 16.7073 65.9547 16.852 65.9547 16.852L64.5827 17.454C64.5827 17.454 64.536 17.3653 64.4427 17.188C64.354 17.006 64.2233 16.831 64.0507 16.663C63.8827 16.4903 63.6867 16.362 63.4627 16.278C63.2433 16.1893 62.9867 16.145 62.6927 16.145C62.2167 16.145 61.834 16.257 61.5447 16.481C61.2553 16.7003 61.1107 16.992 61.1107 17.356V17.384C61.1107 17.7387 61.2483 18.0373 61.5237 18.28C61.799 18.518 62.4103 18.8003 63.3577 19.127C64.361 19.4677 65.0843 19.8853 65.5277 20.38C65.9757 20.87 66.1997 21.4767 66.1997 22.2V22.249C66.1997 23.1403 65.887 23.8613 65.2617 24.412C64.6363 24.958 63.8103 25.231 62.7837 25.231ZM71.1457 25.224C70.0351 25.224 69.1297 24.8693 68.4297 24.16C67.7344 23.4507 67.3867 22.55 67.3867 21.458V21.234C67.3867 20.1327 67.7391 19.2297 68.4437 18.525C69.1484 17.8203 70.0491 17.468 71.1457 17.468C72.2424 17.468 73.1407 17.825 73.8407 18.539C74.5454 19.2483 74.8978 20.1467 74.8978 21.234V21.458C74.8978 22.5453 74.5501 23.446 73.8547 24.16C73.1594 24.8693 72.2564 25.224 71.1457 25.224ZM71.1457 23.845C71.7757 23.845 72.2961 23.6257 72.7067 23.187C73.1174 22.7483 73.3227 22.1767 73.3227 21.472V21.227C73.3227 20.5223 73.1174 19.9507 72.7067 19.512C72.2961 19.0687 71.7757 18.847 71.1457 18.847C70.5111 18.847 69.9884 19.0663 69.5777 19.505C69.1717 19.9437 68.9687 20.5177 68.9687 21.227V21.472C68.9687 22.1767 69.1717 22.7483 69.5777 23.187C69.9837 23.6257 70.5064 23.845 71.1457 23.845ZM78.9783 25.224C78.1617 25.224 77.5293 24.9907 77.0813 24.524C76.6333 24.0573 76.4093 23.397 76.4093 22.543V17.692H77.9843V22.249C77.9843 22.8137 78.1103 23.2337 78.3623 23.509C78.619 23.7797 78.997 23.915 79.4963 23.915C79.9957 23.915 80.4157 23.733 80.7563 23.369C81.097 23.005 81.2673 22.55 81.2673 22.004V17.692H82.8353V25H81.3443V23.292L82.0653 24.006H81.3023C81.0877 24.3607 80.7773 24.6523 80.3713 24.881C79.9653 25.1097 79.501 25.224 78.9783 25.224ZM84.8578 25V17.692H86.3488V18.98L86.1738 18.798H86.3978C86.5332 18.4107 86.7828 18.091 87.1468 17.839C87.5155 17.587 87.9122 17.461 88.3368 17.461C88.4768 17.461 88.6168 17.475 88.7568 17.503C88.9015 17.5263 89.0345 17.5637 89.1558 17.615C89.2772 17.6617 89.3378 17.685 89.3378 17.685L89.1838 19.176C89.1838 19.176 89.1162 19.1503 88.9808 19.099C88.8455 19.0477 88.7055 19.008 88.5608 18.98C88.4162 18.9473 88.2878 18.931 88.1758 18.931C87.6812 18.931 87.2658 19.1177 86.9298 19.491C86.5985 19.8597 86.4328 20.359 86.4328 20.989V25H84.8578ZM93.5032 25.231C92.4159 25.231 91.5315 24.8763 90.8502 24.167C90.1735 23.4577 89.8352 22.55 89.8352 21.444V21.22C89.8352 20.1187 90.1759 19.218 90.8572 18.518C91.5385 17.8133 92.4275 17.461 93.5242 17.461C93.9535 17.461 94.3409 17.5193 94.6862 17.636C95.0362 17.748 95.3559 17.9207 95.6452 18.154C95.9392 18.3873 96.2239 18.7303 96.4992 19.183L95.3022 19.918C95.1109 19.6193 94.9335 19.4 94.7702 19.26C94.6069 19.1153 94.4202 19.0103 94.2102 18.945C94.0049 18.8797 93.7739 18.847 93.5172 18.847C92.9199 18.847 92.4182 19.064 92.0122 19.498C91.6109 19.9273 91.4102 20.4967 91.4102 21.206V21.465C91.4102 22.1743 91.6132 22.7507 92.0192 23.194C92.4252 23.6327 92.9222 23.852 93.5102 23.852C93.7762 23.852 94.0189 23.8147 94.2382 23.74C94.4622 23.6607 94.6559 23.551 94.8192 23.411C94.9872 23.271 95.1762 23.0353 95.3862 22.704L96.6112 23.39C96.3265 23.8847 96.0395 24.2533 95.7502 24.496C95.4609 24.7387 95.1249 24.9207 94.7422 25.042C94.3642 25.168 93.9512 25.231 93.5032 25.231ZM101.197 25.224C100.115 25.224 99.2351 24.8787 98.5584 24.188C97.8864 23.4927 97.5504 22.585 97.5504 21.465V21.234C97.5504 20.1607 97.8794 19.2647 98.5374 18.546C99.2001 17.8273 100.068 17.468 101.141 17.468C102.163 17.468 102.987 17.7807 103.612 18.406C104.238 19.0313 104.55 19.8293 104.55 20.8V21.71H98.3904V20.653H103.031V20.562C103.008 20.0487 102.828 19.624 102.492 19.288C102.161 18.952 101.711 18.784 101.141 18.784C100.539 18.784 100.049 18.9987 99.6714 19.428C99.2934 19.8573 99.1044 20.45 99.1044 21.206V21.458C99.1044 22.242 99.3098 22.8487 99.7204 23.278C100.136 23.7027 100.665 23.915 101.309 23.915C101.599 23.915 101.853 23.8777 102.072 23.803C102.292 23.7237 102.492 23.614 102.674 23.474C102.856 23.334 103.062 23.1123 103.29 22.809L104.361 23.537C104.086 23.9803 103.801 24.314 103.507 24.538C103.213 24.762 102.884 24.9323 102.52 25.049C102.161 25.1657 101.72 25.224 101.197 25.224Z" fill="#332D41"/>
<path d="M25.1111 30H18.8889V28.2529H25.1111V30ZM13.771 24.6683C13.8631 25.7522 14.2197 26.5971 14.8212 27.1894C15.4051 27.7734 16.2583 28.1353 17.3333 28.2286V29.9826C15.7051 29.884 14.4164 29.3564 13.53 28.4699C12.6264 27.576 12.1147 26.2906 12.0174 24.6683H13.771ZM31.9909 24.6683C31.8918 26.2906 31.3714 27.576 30.4679 28.4699C29.591 29.3468 28.303 29.8822 26.6667 29.9824V28.2281C27.7494 28.1331 28.6032 27.7645 29.1875 27.1894C29.789 26.5971 30.1456 25.7522 30.2376 24.6683H31.9909ZM22 13.8338C22.3803 13.8338 22.7548 13.9271 23.0907 14.1055C23.4266 14.2839 23.7137 14.5421 23.9266 14.8573C23.9716 14.9273 24.0176 14.9965 24.064 15.0654L20.5399 18.5968C20.1474 18.9899 19.9079 19.5103 19.9141 20.0807C19.9202 20.6471 20.1671 21.1548 20.5453 21.5353L20.5534 21.5434L20.5616 21.5514C20.9416 21.9182 21.4441 22.1529 21.9991 22.1582C22.559 22.1636 23.0761 21.9346 23.4731 21.5486L23.4787 21.5431L23.4842 21.5377L26.9931 18.0293C27.0974 18.1015 27.2029 18.1722 27.3099 18.2409C27.6251 18.4539 27.8832 18.741 28.0616 19.0769C28.24 19.4129 28.3333 19.7874 28.3333 20.1678C28.3333 20.5481 28.24 20.9227 28.0616 21.2586C27.8832 21.5946 27.6251 21.8816 27.3099 22.0946C25.9524 22.9665 24.7985 24.1205 23.9266 25.4782C23.7137 25.7934 23.4266 26.0516 23.0907 26.23C22.7548 26.4085 22.3803 26.5018 22 26.5018C21.6197 26.5018 21.2452 26.4085 20.9093 26.23C20.5734 26.0516 20.2863 25.7934 20.0734 25.4782C19.2015 24.1205 18.0476 22.9665 16.6901 22.0946C16.375 21.8816 16.1168 21.5946 15.9384 21.2586C15.76 20.9227 15.6667 20.5481 15.6667 20.1678C15.6667 19.7874 15.76 19.4129 15.9384 19.0769C16.1168 18.741 16.375 18.4539 16.6901 18.2409C18.0476 17.369 19.2015 16.215 20.0734 14.8573C20.2863 14.5421 20.5734 14.2839 20.9093 14.1055C21.2452 13.9271 21.6197 13.8338 22 13.8338ZM13.747 23.1125H12V16.8897H13.747V23.1125ZM30.8889 10C31.5357 10 32 10.4989 32 11.1112V20.6828C32 21.2722 31.6314 21.6679 31.1111 21.6679C30.5678 21.6679 30.2222 21.1917 30.2222 20.6828V18.0009L30.2986 12.9836L28.6814 14.7149L22.6986 20.6962C22.2841 21.0993 21.7316 21.0807 21.3333 20.6962C20.9306 20.2911 20.9166 19.7361 21.3264 19.3263L27.3095 13.3313L29.0135 11.7537L23.7778 11.778H21.3333C20.8245 11.778 20.3334 11.407 20.3333 10.889C20.3333 10.3595 20.721 10 21.3333 10H30.8889ZM17.3333 11.7719C16.2559 11.8671 15.396 12.2358 14.8212 12.8106C14.2193 13.4033 13.8626 14.2489 13.7708 15.3339H12.0176C12.1162 13.7105 12.6357 12.4244 13.53 11.5301C14.4067 10.6533 15.7033 10.1177 17.3333 10.0174V11.7719Z" fill="#332D41"/>
</g>
<defs>
<clipPath id="clip0_26_1701">
<rect width="118" height="40" rx="4" fill="white"/>
</clipPath>
</defs>
</svg>
