<svg width="139" height="40" viewBox="0 0 139 40" fill="none" xmlns="http://www.w3.org/2000/svg">
<g clip-path="url(#clip0_26_1713)">
<path d="M0 6.4C0 4.15979 0 3.03968 0.435974 2.18404C0.819467 1.43139 1.43139 0.819467 2.18404 0.435974C3.03968 0 4.15979 0 6.4 0H119C130.046 0 139 8.95431 139 20C139 31.0457 130.046 40 119 40H6.39999C4.15979 40 3.03968 40 2.18404 39.564C1.43139 39.1805 0.819467 38.5686 0.435974 37.816C0 36.9603 0 35.8402 0 33.6V6.4Z" fill="#CCC2DC"/>
<path d="M13.197 25V14.976H16.41C17.9033 14.976 19.091 15.41 19.973 16.278C20.855 17.146 21.296 18.3267 21.296 19.82V20.114C21.296 21.598 20.8503 22.7833 19.959 23.67C19.0723 24.5567 17.8893 25 16.41 25H13.197ZM14.807 23.523H16.319C17.3643 23.523 18.1833 23.2337 18.776 22.655C19.3687 22.0717 19.665 21.234 19.665 20.142V19.813C19.665 18.7163 19.3663 17.8857 18.769 17.321C18.1763 16.7517 17.3643 16.467 16.333 16.467H14.807V23.523ZM23.0818 25V17.692H24.6568V25H23.0818ZM23.8728 16.327C23.6021 16.327 23.3688 16.2313 23.1728 16.04C22.9815 15.844 22.8858 15.613 22.8858 15.347C22.8858 15.0717 22.9815 14.843 23.1728 14.661C23.3688 14.4743 23.6021 14.381 23.8728 14.381C24.1528 14.381 24.3838 14.4743 24.5658 14.661C24.7525 14.843 24.8458 15.0717 24.8458 15.347C24.8458 15.6177 24.7525 15.8487 24.5658 16.04C24.3838 16.2313 24.1528 16.327 23.8728 16.327ZM26.7352 25V17.692H28.2262V18.98L28.0512 18.798H28.2752C28.4105 18.4107 28.6602 18.091 29.0242 17.839C29.3928 17.587 29.7895 17.461 30.2142 17.461C30.3542 17.461 30.4942 17.475 30.6342 17.503C30.7788 17.5263 30.9118 17.5637 31.0332 17.615C31.1545 17.6617 31.2152 17.685 31.2152 17.685L31.0612 19.176C31.0612 19.176 30.9935 19.1503 30.8582 19.099C30.7228 19.0477 30.5828 19.008 30.4382 18.98C30.2935 18.9473 30.1652 18.931 30.0532 18.931C29.5585 18.931 29.1432 19.1177 28.8072 19.491C28.4758 19.8597 28.3102 20.359 28.3102 20.989V25H26.7352ZM35.3595 25.224C34.2769 25.224 33.3972 24.8787 32.7205 24.188C32.0485 23.4927 31.7125 22.585 31.7125 21.465V21.234C31.7125 20.1607 32.0415 19.2647 32.6995 18.546C33.3622 17.8273 34.2302 17.468 35.3035 17.468C36.3255 17.468 37.1492 17.7807 37.7745 18.406C38.3999 19.0313 38.7125 19.8293 38.7125 20.8V21.71H32.5525V20.653H37.1935V20.562C37.1702 20.0487 36.9905 19.624 36.6545 19.288C36.3232 18.952 35.8729 18.784 35.3035 18.784C34.7015 18.784 34.2115 18.9987 33.8335 19.428C33.4555 19.8573 33.2665 20.45 33.2665 21.206V21.458C33.2665 22.242 33.4719 22.8487 33.8825 23.278C34.2979 23.7027 34.8275 23.915 35.4715 23.915C35.7609 23.915 36.0152 23.8777 36.2345 23.803C36.4539 23.7237 36.6545 23.614 36.8365 23.474C37.0185 23.334 37.2239 23.1123 37.4525 22.809L38.5235 23.537C38.2482 23.9803 37.9635 24.314 37.6695 24.538C37.3755 24.762 37.0465 24.9323 36.6825 25.049C36.3232 25.1657 35.8822 25.224 35.3595 25.224ZM43.5333 25.231C42.4459 25.231 41.5616 24.8763 40.8803 24.167C40.2036 23.4577 39.8653 22.55 39.8653 21.444V21.22C39.8653 20.1187 40.2059 19.218 40.8873 18.518C41.5686 17.8133 42.4576 17.461 43.5543 17.461C43.9836 17.461 44.3709 17.5193 44.7163 17.636C45.0663 17.748 45.3859 17.9207 45.6753 18.154C45.9693 18.3873 46.2539 18.7303 46.5293 19.183L45.3323 19.918C45.1409 19.6193 44.9636 19.4 44.8003 19.26C44.6369 19.1153 44.4503 19.0103 44.2403 18.945C44.0349 18.8797 43.8039 18.847 43.5473 18.847C42.9499 18.847 42.4483 19.064 42.0423 19.498C41.6409 19.9273 41.4403 20.4967 41.4403 21.206V21.465C41.4403 22.1743 41.6433 22.7507 42.0493 23.194C42.4553 23.6327 42.9523 23.852 43.5403 23.852C43.8063 23.852 44.0489 23.8147 44.2683 23.74C44.4923 23.6607 44.6859 23.551 44.8493 23.411C45.0173 23.271 45.2063 23.0353 45.4163 22.704L46.6413 23.39C46.3566 23.8847 46.0696 24.2533 45.7803 24.496C45.4909 24.7387 45.1549 24.9207 44.7723 25.042C44.3943 25.168 43.9813 25.231 43.5333 25.231ZM50.6605 25.224C50.0165 25.224 49.5055 25.0397 49.1275 24.671C48.7495 24.3023 48.5605 23.775 48.5605 23.089V15.746H50.1285V22.872C50.1285 23.208 50.2008 23.46 50.3455 23.628C50.4902 23.796 50.7095 23.8823 51.0035 23.887C51.0968 23.887 51.1948 23.8753 51.2975 23.852C51.4048 23.8287 51.5285 23.789 51.6685 23.733C51.8132 23.677 51.8855 23.649 51.8855 23.649L52.0535 24.902C52.0535 24.902 51.9718 24.9347 51.8085 25C51.6498 25.07 51.4772 25.1237 51.2905 25.161C51.1038 25.203 50.8938 25.224 50.6605 25.224ZM47.3705 19.008V17.692H51.9135V19.008H47.3705ZM57.1822 25V14.976H60.3952C61.8885 14.976 63.0762 15.41 63.9582 16.278C64.8402 17.146 65.2812 18.3267 65.2812 19.82V20.114C65.2812 21.598 64.8355 22.7833 63.9442 23.67C63.0575 24.5567 61.8745 25 60.3952 25H57.1822ZM58.7922 23.523H60.3042C61.3495 23.523 62.1685 23.2337 62.7612 22.655C63.3538 22.0717 63.6502 21.234 63.6502 20.142V19.813C63.6502 18.7163 63.3515 17.8857 62.7542 17.321C62.1615 16.7517 61.3495 16.467 60.3182 16.467H58.7922V23.523ZM70.329 25.224C69.2183 25.224 68.313 24.8693 67.613 24.16C66.9176 23.4507 66.57 22.55 66.57 21.458V21.234C66.57 20.1327 66.9223 19.2297 67.627 18.525C68.3316 17.8203 69.2323 17.468 70.329 17.468C71.4256 17.468 72.324 17.825 73.024 18.539C73.7286 19.2483 74.081 20.1467 74.081 21.234V21.458C74.081 22.5453 73.7333 23.446 73.038 24.16C72.3426 24.8693 71.4396 25.224 70.329 25.224ZM70.329 23.845C70.959 23.845 71.4793 23.6257 71.89 23.187C72.3006 22.7483 72.506 22.1767 72.506 21.472V21.227C72.506 20.5223 72.3006 19.9507 71.89 19.512C71.4793 19.0687 70.959 18.847 70.329 18.847C69.6943 18.847 69.1716 19.0663 68.761 19.505C68.355 19.9437 68.152 20.5177 68.152 21.227V21.472C68.152 22.1767 68.355 22.7483 68.761 23.187C69.167 23.6257 69.6896 23.845 70.329 23.845ZM76.8441 25L74.6181 17.692H76.1861L77.4461 22.305L77.6561 23.103H77.7051L77.9221 22.326L79.2801 17.692H80.7151L82.0801 22.312L82.3041 23.096H82.3461L82.5561 22.312L83.8231 17.692H85.3211L83.0811 25H81.6251L80.1831 20.282L79.9801 19.533H79.9311L79.7281 20.282L78.3141 25H76.8441ZM86.5156 25V17.692H88.0206V18.959L87.8246 18.714H88.0626C88.2866 18.3407 88.611 18.0397 89.0356 17.811C89.4603 17.5823 89.927 17.468 90.4356 17.468C91.2383 17.468 91.8636 17.699 92.3116 18.161C92.7596 18.6183 92.9836 19.2507 92.9836 20.058V25H91.4086V20.401C91.4086 19.883 91.2826 19.4887 91.0306 19.218C90.7833 18.9427 90.4006 18.805 89.8826 18.805C89.3646 18.805 88.9353 18.987 88.5946 19.351C88.2586 19.715 88.0906 20.163 88.0906 20.695V25H86.5156ZM94.9281 25V14.822H96.5031V25H94.9281ZM101.832 25.224C100.722 25.224 99.8165 24.8693 99.1165 24.16C98.4211 23.4507 98.0735 22.55 98.0735 21.458V21.234C98.0735 20.1327 98.4258 19.2297 99.1305 18.525C99.8351 17.8203 100.736 17.468 101.832 17.468C102.929 17.468 103.827 17.825 104.527 18.539C105.232 19.2483 105.584 20.1467 105.584 21.234V21.458C105.584 22.5453 105.237 23.446 104.541 24.16C103.846 24.8693 102.943 25.224 101.832 25.224ZM101.832 23.845C102.462 23.845 102.983 23.6257 103.393 23.187C103.804 22.7483 104.009 22.1767 104.009 21.472V21.227C104.009 20.5223 103.804 19.9507 103.393 19.512C102.983 19.0687 102.462 18.847 101.832 18.847C101.198 18.847 100.675 19.0663 100.264 19.505C99.8585 19.9437 99.6555 20.5177 99.6555 21.227V21.472C99.6555 22.1767 99.8585 22.7483 100.264 23.187C100.67 23.6257 101.193 23.845 101.832 23.845ZM109.301 25.224C108.531 25.224 107.903 25.0093 107.418 24.58C106.937 24.146 106.697 23.5603 106.697 22.823V22.732C106.697 21.9853 106.968 21.395 107.509 20.961C108.055 20.527 108.762 20.31 109.63 20.31C110.027 20.31 110.398 20.3543 110.743 20.443C111.088 20.5317 111.382 20.6483 111.625 20.793V20.268C111.625 19.7873 111.464 19.414 111.142 19.148C110.825 18.882 110.409 18.749 109.896 18.749C109.611 18.749 109.366 18.7817 109.161 18.847C108.96 18.9123 108.781 18.9963 108.622 19.099C108.468 19.197 108.314 19.316 108.16 19.456C108.006 19.5913 107.929 19.659 107.929 19.659L106.998 18.791C106.998 18.791 107.098 18.6953 107.299 18.504C107.5 18.308 107.731 18.1307 107.992 17.972C108.253 17.8133 108.545 17.6897 108.867 17.601C109.189 17.5077 109.574 17.461 110.022 17.461C110.983 17.461 111.746 17.7107 112.311 18.21C112.876 18.7047 113.158 19.393 113.158 20.275V25H111.66V23.537L112.01 24.062H111.618C111.408 24.3933 111.1 24.671 110.694 24.895C110.288 25.1143 109.824 25.224 109.301 25.224ZM109.679 24.034C110.23 24.034 110.692 23.8403 111.065 23.453C111.443 23.061 111.634 22.585 111.639 22.025V21.864C111.429 21.7007 111.175 21.5747 110.876 21.486C110.577 21.3927 110.265 21.346 109.938 21.346C109.42 21.346 109.009 21.4603 108.706 21.689C108.403 21.913 108.251 22.2373 108.251 22.662V22.767C108.251 23.159 108.379 23.4693 108.636 23.698C108.897 23.922 109.245 24.034 109.679 24.034ZM118.012 25.224C117.051 25.224 116.253 24.8787 115.618 24.188C114.983 23.4973 114.666 22.592 114.666 21.472V21.241C114.666 20.1117 114.981 19.2017 115.611 18.511C116.246 17.8203 117.034 17.475 117.977 17.475C118.504 17.475 118.976 17.5917 119.391 17.825C119.806 18.0583 120.114 18.35 120.315 18.7H120.364V14.822H121.932V25H120.42V23.754L120.637 24.041H120.371C120.142 24.391 119.823 24.6757 119.412 24.895C119.001 25.1143 118.535 25.224 118.012 25.224ZM118.334 23.887C118.936 23.887 119.433 23.6677 119.825 23.229C120.222 22.7857 120.42 22.2023 120.42 21.479V21.234C120.42 20.5107 120.219 19.9297 119.818 19.491C119.417 19.0477 118.922 18.826 118.334 18.826C117.732 18.826 117.233 19.0477 116.836 19.491C116.439 19.9343 116.241 20.5177 116.241 21.241V21.472C116.241 22.1907 116.437 22.774 116.829 23.222C117.221 23.6653 117.723 23.887 118.334 23.887Z" fill="#332D41"/>
</g>
<defs>
<clipPath id="clip0_26_1713">
<path d="M0 6.4C0 4.15979 0 3.03968 0.435974 2.18404C0.819467 1.43139 1.43139 0.819467 2.18404 0.435974C3.03968 0 4.15979 0 6.4 0H119C130.046 0 139 8.95431 139 20C139 31.0457 130.046 40 119 40H6.39999C4.15979 40 3.03968 40 2.18404 39.564C1.43139 39.1805 0.819467 38.5686 0.435974 37.816C0 36.9603 0 35.8402 0 33.6V6.4Z" fill="white"/>
</clipPath>
</defs>
</svg>
