<svg width="127" height="40" viewBox="0 0 127 40" fill="none" xmlns="http://www.w3.org/2000/svg">
<g clip-path="url(#clip0_26_1692)">
<path d="M0 20C0 8.95431 8.95431 0 20 0H123C125.209 0 127 1.79086 127 4V36C127 38.2091 125.209 40 123 40H20C8.9543 40 0 31.0457 0 20Z" fill="#CCC2DC"/>
<path d="M49.621 25.224C48.2257 25.224 47.052 24.7573 46.1 23.824C45.1527 22.8907 44.679 21.6633 44.679 20.142V19.806C44.679 18.3127 45.1503 17.097 46.093 16.159C47.0403 15.2163 48.2163 14.745 49.621 14.745C51.0117 14.745 52.183 15.2163 53.135 16.159C54.0917 17.097 54.57 18.3127 54.57 19.806V20.142C54.57 21.6213 54.094 22.8393 53.142 23.796C52.1947 24.748 51.021 25.224 49.621 25.224ZM49.621 23.719C50.573 23.719 51.3617 23.3947 51.987 22.746C52.617 22.0973 52.932 21.241 52.932 20.177V19.771C52.932 18.7163 52.6123 17.867 51.973 17.223C51.3383 16.579 50.5543 16.257 49.621 16.257C48.6783 16.257 47.8897 16.5767 47.255 17.216C46.625 17.8507 46.31 18.7023 46.31 19.771V20.177C46.31 21.2457 46.6273 22.1043 47.262 22.753C47.8967 23.397 48.683 23.719 49.621 23.719ZM60.2173 25.224C59.6993 25.224 59.2349 25.1143 58.8243 24.895C58.4136 24.671 58.0916 24.3863 57.8583 24.041H57.4593L57.8093 23.635V25H56.2973V14.822H57.8723V18.7H57.9143C58.1336 18.35 58.4509 18.0583 58.8663 17.825C59.2816 17.587 59.7553 17.468 60.2873 17.468C61.2159 17.468 61.9929 17.8087 62.6183 18.49C63.2483 19.1713 63.5633 20.0813 63.5633 21.22V21.458C63.5633 22.5733 63.2459 23.481 62.6113 24.181C61.9766 24.8763 61.1786 25.224 60.2173 25.224ZM59.9023 23.88C60.5089 23.88 61.0059 23.6583 61.3933 23.215C61.7853 22.767 61.9813 22.1813 61.9813 21.458V21.227C61.9813 20.5037 61.7853 19.9227 61.3933 19.484C61.0013 19.0407 60.5043 18.819 59.9023 18.819C59.3143 18.819 58.8196 19.0407 58.4183 19.484C58.0169 19.9227 57.8163 20.5037 57.8163 21.227V21.472C57.8163 22.1953 58.0123 22.7787 58.4043 23.222C58.8009 23.6607 59.3003 23.88 59.9023 23.88ZM67.7726 25.224C67.1286 25.224 66.6176 25.0397 66.2396 24.671C65.8616 24.3023 65.6726 23.775 65.6726 23.089V15.746H67.2406V22.872C67.2406 23.208 67.3129 23.46 67.4576 23.628C67.6023 23.796 67.8216 23.8823 68.1156 23.887C68.2089 23.887 68.3069 23.8753 68.4096 23.852C68.5169 23.8287 68.6406 23.789 68.7806 23.733C68.9253 23.677 68.9976 23.649 68.9976 23.649L69.1656 24.902C69.1656 24.902 69.0839 24.9347 68.9206 25C68.7619 25.07 68.5893 25.1237 68.4026 25.161C68.2159 25.203 68.0059 25.224 67.7726 25.224ZM64.4826 19.008V17.692H69.0256V19.008H64.4826ZM72.7893 25.224C72.0193 25.224 71.3917 25.0093 70.9063 24.58C70.4257 24.146 70.1853 23.5603 70.1853 22.823V22.732C70.1853 21.9853 70.456 21.395 70.9973 20.961C71.5433 20.527 72.2503 20.31 73.1183 20.31C73.515 20.31 73.886 20.3543 74.2313 20.443C74.5767 20.5317 74.8707 20.6483 75.1133 20.793V20.268C75.1133 19.7873 74.9523 19.414 74.6303 19.148C74.313 18.882 73.8977 18.749 73.3843 18.749C73.0997 18.749 72.8547 18.7817 72.6493 18.847C72.4487 18.9123 72.269 18.9963 72.1103 19.099C71.9563 19.197 71.8023 19.316 71.6483 19.456C71.4943 19.5913 71.4173 19.659 71.4173 19.659L70.4863 18.791C70.4863 18.791 70.5867 18.6953 70.7873 18.504C70.988 18.308 71.219 18.1307 71.4803 17.972C71.7417 17.8133 72.0333 17.6897 72.3553 17.601C72.6773 17.5077 73.0623 17.461 73.5103 17.461C74.4717 17.461 75.2347 17.7107 75.7993 18.21C76.364 18.7047 76.6463 19.393 76.6463 20.275V25H75.1483V23.537L75.4983 24.062H75.1063C74.8963 24.3933 74.5883 24.671 74.1823 24.895C73.7763 25.1143 73.312 25.224 72.7893 25.224ZM73.1673 24.034C73.718 24.034 74.18 23.8403 74.5533 23.453C74.9313 23.061 75.1227 22.585 75.1273 22.025V21.864C74.9173 21.7007 74.663 21.5747 74.3643 21.486C74.0657 21.3927 73.753 21.346 73.4263 21.346C72.9083 21.346 72.4977 21.4603 72.1943 21.689C71.891 21.913 71.7393 22.2373 71.7393 22.662V22.767C71.7393 23.159 71.8677 23.4693 72.1243 23.698C72.3857 23.922 72.7333 24.034 73.1673 24.034ZM78.6513 25V17.692H80.2263V25H78.6513ZM79.4423 16.327C79.1717 16.327 78.9383 16.2313 78.7423 16.04C78.551 15.844 78.4553 15.613 78.4553 15.347C78.4553 15.0717 78.551 14.843 78.7423 14.661C78.9383 14.4743 79.1717 14.381 79.4423 14.381C79.7223 14.381 79.9533 14.4743 80.1353 14.661C80.322 14.843 80.4153 15.0717 80.4153 15.347C80.4153 15.6177 80.322 15.8487 80.1353 16.04C79.9533 16.2313 79.7223 16.327 79.4423 16.327ZM82.3047 25V17.692H83.8097V18.959L83.6137 18.714H83.8517C84.0757 18.3407 84.4 18.0397 84.8247 17.811C85.2494 17.5823 85.716 17.468 86.2247 17.468C87.0274 17.468 87.6527 17.699 88.1007 18.161C88.5487 18.6183 88.7727 19.2507 88.7727 20.058V25H87.1977V20.401C87.1977 19.883 87.0717 19.4887 86.8197 19.218C86.5724 18.9427 86.1897 18.805 85.6717 18.805C85.1537 18.805 84.7244 18.987 84.3837 19.351C84.0477 19.715 83.8797 20.163 83.8797 20.695V25H82.3047ZM90.7732 25V17.692H92.3482V25H90.7732ZM91.5642 16.327C91.2935 16.327 91.0602 16.2313 90.8642 16.04C90.6729 15.844 90.5772 15.613 90.5772 15.347C90.5772 15.0717 90.6729 14.843 90.8642 14.661C91.0602 14.4743 91.2935 14.381 91.5642 14.381C91.8442 14.381 92.0752 14.4743 92.2572 14.661C92.4439 14.843 92.5372 15.0717 92.5372 15.347C92.5372 15.6177 92.4439 15.8487 92.2572 16.04C92.0752 16.2313 91.8442 16.327 91.5642 16.327ZM96.9186 25.224C96.1019 25.224 95.4696 24.9907 95.0216 24.524C94.5736 24.0573 94.3496 23.397 94.3496 22.543V17.692H95.9246V22.249C95.9246 22.8137 96.0506 23.2337 96.3026 23.509C96.5592 23.7797 96.9372 23.915 97.4366 23.915C97.9359 23.915 98.3559 23.733 98.6966 23.369C99.0372 23.005 99.2076 22.55 99.2076 22.004V17.692H100.776V25H99.2846V23.292L100.006 24.006H99.2426C99.0279 24.3607 98.7176 24.6523 98.3116 24.881C97.9056 25.1097 97.4412 25.224 96.9186 25.224ZM102.798 25V17.692H104.303V18.903L104.163 18.714H104.345C104.555 18.35 104.865 18.0513 105.276 17.818C105.687 17.5847 106.135 17.468 106.62 17.468C107.147 17.468 107.602 17.587 107.985 17.825C108.368 18.063 108.638 18.4013 108.797 18.84C109.049 18.406 109.387 18.07 109.812 17.832C110.241 17.5893 110.717 17.468 111.24 17.468C112.043 17.468 112.654 17.7013 113.074 18.168C113.494 18.63 113.704 19.2787 113.704 20.114V25H112.143V20.415C112.143 19.8737 112.022 19.4723 111.779 19.211C111.541 18.945 111.184 18.812 110.708 18.812C110.241 18.812 109.845 18.9917 109.518 19.351C109.196 19.7103 109.035 20.1653 109.035 20.716V25H107.467V20.408C107.467 19.8667 107.343 19.4653 107.096 19.204C106.853 18.938 106.499 18.805 106.032 18.805C105.57 18.805 105.178 18.9893 104.856 19.358C104.534 19.7267 104.373 20.1723 104.373 20.695V25H102.798Z" fill="#332D41"/>
<path d="M29.6619 28.8733C29.4092 28.7421 27.9319 27.9404 21.012 24.179C19.0863 23.1324 17.2323 22.1258 16.8919 21.9423C16.1188 21.5256 16 21.423 16 21.1724C16 21.0411 16.3085 20.2003 17.0317 18.3612C17.5991 16.9181 18.1009 15.6535 18.1468 15.5509C18.2513 15.3174 18.4197 15.1191 18.5842 15.0358C18.7381 14.9578 22.5858 13.5817 22.782 13.5344C22.994 13.4834 23.1768 13.5817 23.2847 13.8048C23.3364 13.9119 23.5515 14.4645 23.7626 15.0328C23.9737 15.6012 24.2879 16.4415 24.461 16.9003C24.8573 17.9514 24.8721 18.1003 24.5961 18.26C24.523 18.3023 24.0471 18.4851 23.5387 18.6663C23.0303 18.8475 22.5452 19.0351 22.4606 19.0833C22.2657 19.1943 22.2363 19.3659 22.3887 19.5038C22.4493 19.5586 23.4269 20.1047 24.5611 20.7174C27.7315 22.4299 27.5555 22.3524 27.767 22.1289C27.8707 22.0194 29.7648 17.3012 29.8735 16.8818C29.9199 16.7026 29.9149 16.6777 29.8158 16.5992C29.6805 16.4918 29.7 16.4872 28.455 16.9183C27.2216 17.3454 27.1042 17.3544 26.939 17.035C26.8522 16.8673 25.5237 13.294 25.4412 13.0065C25.3878 12.8205 25.4531 12.6438 25.6129 12.5412C25.6794 12.4986 26.6462 12.1354 27.7614 11.7341C29.4163 11.1385 29.8375 11.0036 30.0528 11.0003C30.3305 10.9959 30.3669 11.0146 35.4589 13.7739C35.8118 13.965 36 14.1663 36 14.3523C36 14.4261 34.7374 17.706 33.1943 21.6408C31.0179 27.1903 30.3611 28.8189 30.2659 28.9008C30.1043 29.0402 29.9718 29.0342 29.6619 28.8733Z" fill="#332D41"/>
</g>
<defs>
<clipPath id="clip0_26_1692">
<path d="M0 20C0 8.95431 8.95431 0 20 0H123C125.209 0 127 1.79086 127 4V36C127 38.2091 125.209 40 123 40H20C8.9543 40 0 31.0457 0 20Z" fill="white"/>
</clipPath>
</defs>
</svg>
